HIERARCHY
ROOT Hips
{
	OFFSET 0.000000 0.000000 0.000000
	CHANNELS 6 Xposition Yposition Zposition Zrotation Yrotation Xrotation 
	JOINT LHipJoint
	{
		OFFSET 0.000000 0.000000 0.000000
		CHANNELS 3 Zrotation Yrotation Xrotation
		JOINT LeftUpLeg
		{
			OFFSET 1.363060 -1.794630 0.839290
			CHANNELS 3 Zrotation Yrotation Xrotation
			JOINT LeftLeg
			{
				OFFSET 2.448110 -6.726130 0.000000
				CHANNELS 3 Zrotation Yrotation Xrotation
				JOINT LeftFoot
				{
					OFFSET 2.562200 -7.039590 0.000000
					CHANNELS 3 Zrotation Yrotation Xrotation
					JOINT LeftToeBase
					{
						OFFSET 0.157640 -0.433110 2.322550
						CHANNELS 3 Zrotation Yrotation Xrotation
						End Site
						{
							OFFSET 0.000000 0.000000 0.000000
						}
					}
				}
			}
		}
	}
	JOINT RHipJoint
	{
		OFFSET 0.000000 0.000000 0.000000
		CHANNELS 3 Zrotation Yrotation Xrotation
		JOINT RightUpLeg
		{
			OFFSET -1.305520 -1.794630 0.839290
			CHANNELS 3 Zrotation Yrotation Xrotation
			JOINT RightLeg
			{
				OFFSET -2.542530 -6.985550 0.000000
				CHANNELS 3 Zrotation Yrotation Xrotation
				JOINT RightFoot
				{
					OFFSET -2.568260 -7.056230 0.000000
					CHANNELS 3 Zrotation Yrotation Xrotation
					JOINT RightToeBase
					{
						OFFSET -0.164730 -0.452590 2.363150
						CHANNELS 3 Zrotation Yrotation Xrotation
						End Site
						{
							OFFSET 0.000000 0.000000 0.000000
						}
					}
				}
			}
		}
	}
	JOINT LowerBack
	{
		OFFSET 0.000000 0.000000 0.000000
		CHANNELS 3 Zrotation Yrotation Xrotation
		JOINT Spine
		{
			OFFSET 0.028270 2.035590 -0.193380
			CHANNELS 3 Zrotation Yrotation Xrotation
			JOINT Spine1
			{
				OFFSET 0.056720 2.048850 -0.042750
				CHANNELS 3 Zrotation Yrotation Xrotation
				JOINT Neck
				{
					OFFSET 0.000000 0.000000 0.000000
					CHANNELS 3 Zrotation Yrotation Xrotation
					JOINT Neck1
					{
						OFFSET -0.054170 1.746240 0.172020
						CHANNELS 3 Zrotation Yrotation Xrotation
						JOINT Head
						{
							OFFSET 0.104070 1.761360 -0.123970
							CHANNELS 3 Zrotation Yrotation Xrotation
							End Site
							{
								OFFSET 0.000000 0.000000 0.000000
							}
						}
					}
				}
				JOINT LeftShoulder
				{
					OFFSET 0.000000 0.000000 0.000000
					CHANNELS 3 Zrotation Yrotation Xrotation
					JOINT LeftArm
					{
						OFFSET 3.362410 1.200890 -0.311210
						CHANNELS 3 Zrotation Yrotation Xrotation
						JOINT LeftForeArm
						{
							OFFSET 4.983000 -0.000000 -0.000000
							CHANNELS 3 Zrotation Yrotation Xrotation
							JOINT LeftHand
							{
								OFFSET 3.483560 -0.000000 -0.000000
								CHANNELS 3 Zrotation Yrotation Xrotation
								JOINT LeftFingerBase
								{
									OFFSET 0.000000 0.000000 0.000000
									CHANNELS 3 Zrotation Yrotation Xrotation
									JOINT LeftHandIndex1
									{
										OFFSET 0.715260 -0.000000 -0.000000
										CHANNELS 3 Zrotation Yrotation Xrotation
										End Site
										{
											OFFSET 0.000000 0.000000 0.000000
										}
									}
								}
								JOINT LThumb
								{
									OFFSET 0.000000 0.000000 0.000000
									CHANNELS 3 Zrotation Yrotation Xrotation
									End Site
									{
										OFFSET 0.000000 0.000000 0.000000
									}
								}
							}
						}
					}
				}
				JOINT RightShoulder
				{
					OFFSET 0.000000 0.000000 0.000000
					CHANNELS 3 Zrotation Yrotation Xrotation
					JOINT RightArm
					{
						OFFSET -3.136600 1.374050 -0.404650
						CHANNELS 3 Zrotation Yrotation Xrotation
						JOINT RightForeArm
						{
							OFFSET -5.241900 -0.000000 -0.000000
							CHANNELS 3 Zrotation Yrotation Xrotation
							JOINT RightHand
							{
								OFFSET -3.444170 -0.000000 -0.000000
								CHANNELS 3 Zrotation Yrotation Xrotation
								JOINT RightFingerBase
								{
									OFFSET 0.000000 0.000000 0.000000
									CHANNELS 3 Zrotation Yrotation Xrotation
									JOINT RightHandIndex1
									{
										OFFSET -0.622530 -0.000000 -0.000000
										CHANNELS 3 Zrotation Yrotation Xrotation
										End Site
										{
											OFFSET 0.000000 0.000000 0.000000
										}
									}
								}
								JOINT RThumb
								{
									OFFSET 0.000000 0.000000 0.000000
									CHANNELS 3 Zrotation Yrotation Xrotation
									End Site
									{
										OFFSET 0.000000 0.000000 0.000000
									}
								}
							}
						}
					}
				}
			}
		}
	}
}
MOTION
Frames: 10
Frame Time: 0.008333
10.942080 1.675465 -4.406581 166.488387 -5.201300 91.918409 -0.198183 -3.512864 -5.676392 -13.807783 1.110946 -100.169691 3.779708 10.447741 33.824757 40.253883 6.587807 169.773790 2.763800 10.302400 29.961700 0.688308 1.973951 -1.057335 1.765853 26.082916 -105.651893 -3.670931 -12.493728 36.735230 -40.540547 8.618578 174.048756 -0.217700 -3.003400 8.288300 -8.476525 2.793407 20.990295 -1.848114 6.039116 6.125284 -2.343907 4.530548 9.456941 -4.167180 -2.452821 -9.580377 2.269191 -1.581353 29.452297 0.902600 0.187300 7.054400 -0.544524 -8.972737 2.209671 -46.147061 -47.074293 53.835903 21.698951 -26.458916 -5.431450 0.992340 0.749406 5.280267 31.593588 -11.932640 -7.627800 -7.125000 0.000000 0.000000 2.293200 14.911400 -1.627200 0.349814 10.142730 4.798086 60.009333 45.428641 29.870963 -33.195375 32.578543 -11.797664 2.075063 1.174549 -8.183039 -17.900112 -33.518290 11.550000 7.125000 0.000000 0.000000 16.273500 -64.932300 -7.943800 
10.935648 1.692882 -4.473778 166.765378 -6.410310 93.611280 -0.234331 -3.536835 -5.683716 -16.202136 1.010487 -97.623444 3.515992 10.344529 33.043910 40.186812 5.830293 170.013179 2.844700 10.439300 30.411300 0.702418 2.031928 -1.094546 -1.518628 24.484799 -103.367864 -4.052444 -12.883792 38.133159 -40.504163 8.304296 175.285053 -5.842300 -14.273700 44.345400 -10.024719 3.001590 21.651769 -1.997269 6.441988 6.443149 -1.724416 4.743557 9.572415 -4.652293 -2.896633 -10.329953 2.262175 -2.082711 30.022334 0.935100 -0.086100 7.379800 -0.566092 -9.009373 2.297048 -48.179516 -47.560613 57.451166 20.582652 -25.004916 -4.963138 1.023585 0.814340 4.680702 31.776759 -12.600308 -8.100500 -7.125000 0.000000 0.000000 2.313700 14.032200 -1.685100 0.424085 10.157551 4.687796 59.311628 43.881060 30.630200 -31.207231 31.211450 -10.650668 2.037765 1.317060 -11.684445 -17.626762 -33.072248 11.284400 7.125000 0.000000 0.000000 16.153700 -64.457800 -7.706100 
10.931392 1.712675 -4.548891 166.872961 -7.417269 95.633278 -0.278149 -3.556330 -5.656009 -17.907722 0.899149 -95.399422 3.426990 10.435113 32.987226 40.137091 5.070319 170.677248 3.162500 10.953600 32.123700 0.738597 2.121263 -1.137347 -1.885842 23.807409 -101.886561 -3.487599 -12.251488 35.796962 -40.708254 10.378459 176.454606 -4.623100 -12.946300 39.167800 -11.654247 3.008614 22.136855 -2.300750 6.505005 6.614620 -1.322204 4.760238 9.657634 -4.320019 -2.998589 -11.286948 2.140301 -2.167888 30.416002 0.828000 -0.113200 7.671900 -0.591571 -8.924470 2.376809 -49.166992 -47.204535 59.283971 19.800594 -24.052204 -4.596147 0.993434 0.843436 4.032955 30.375098 -12.114458 -7.399900 -7.125000 0.000000 0.000000 1.430700 14.799500 -1.018100 0.455389 10.133619 4.717726 60.684562 42.975310 30.926147 -30.384194 30.691806 -10.190531 1.985954 1.372546 -12.721229 -16.763023 -32.912663 10.724200 7.125000 0.000000 0.000000 17.079000 -64.113100 -8.022700 
10.921199 1.736130 -4.636574 166.770504 -8.128467 98.147796 -0.320027 -3.544167 -5.627450 -19.571230 0.509734 -94.203829 3.130060 10.183951 31.860719 40.123056 5.263066 169.918087 1.522300 7.790800 22.080400 0.790020 2.172972 -1.127169 -2.438135 23.338124 -101.392832 -2.959203 -11.553193 33.438136 -40.816548 11.115736 175.390576 -4.951500 -13.328900 40.612500 -13.444256 2.725364 22.173727 -2.552425 6.067459 6.610759 -0.728914 4.441570 9.786152 -3.888547 -2.653000 -11.995574 1.888295 -1.639187 30.313964 0.724900 0.132200 7.764100 -0.628308 -8.792742 2.476553 -49.406233 -45.932433 58.967796 19.149609 -23.406557 -4.299752 0.945486 0.836742 3.287979 28.816725 -11.673998 -6.698100 -7.125000 0.000000 0.000000 0.435000 15.560900 -0.302400 0.452925 10.100727 4.769688 62.775596 42.681936 32.043478 -29.890789 30.344518 -9.881263 1.958818 1.350391 -12.048239 -15.720930 -32.593974 10.011500 7.125000 0.000000 0.000000 18.065800 -63.564700 -8.269500 
10.904969 1.759584 -4.735736 166.582568 -8.443390 101.105659 -0.350761 -3.547809 -5.604265 -20.322161 -0.069954 -93.569863 3.032381 10.144959 31.535693 40.147448 5.256066 170.383417 2.399500 9.652800 27.859500 0.840376 2.189644 -1.097000 -2.889324 22.993841 -101.592278 -2.417326 -10.709469 30.752404 -40.812288 10.811406 173.821617 -6.294300 -14.707600 46.151700 -14.634792 2.531554 21.984496 -2.711551 5.735884 6.461128 -0.323602 4.191896 9.767273 -3.536432 -2.394166 -11.980150 1.721369 -1.345306 29.429889 0.628500 0.236100 7.509800 -0.648162 -8.719274 2.547439 -49.680554 -44.753974 58.904451 18.784666 -23.098214 -4.227862 0.904431 0.882444 2.054783 30.672589 -11.699948 -7.277100 -7.125000 0.000000 0.000000 1.715600 15.223700 -1.205500 0.452061 10.085969 4.747660 64.049594 41.903888 33.042890 -29.216159 29.894865 -9.494650 1.963653 1.273821 -10.704053 -15.392504 -32.095239 9.672000 7.125000 0.000000 0.000000 18.022900 -62.993000 -8.007800 
10.894083 1.780763 -4.835591 166.566517 -8.333058 104.149936 -0.377889 -3.575884 -5.603942 -20.770651 -0.803640 -93.409130 2.837240 9.963002 30.769634 40.087671 4.778394 170.234222 2.210800 9.292000 26.713100 0.872076 2.217481 -1.095596 -3.791286 22.587230 -102.150696 -2.285590 -10.497267 30.108538 -40.878852 11.395620 174.135560 -7.258900 -15.546100 49.846700 -15.177869 2.407904 21.973630 -2.750114 5.495857 6.284703 -0.107788 4.044092 9.586442 -3.692758 -2.174377 -11.510427 2.215487 -1.334467 27.943029 0.769000 0.203500 7.021400 -0.653330 -8.738393 2.613915 -49.940354 -43.850573 59.073934 18.623464 -22.970140 -4.166884 0.881710 0.886283 0.917223 30.472202 -11.862148 -7.298400 -7.125000 0.000000 0.000000 1.567800 15.087800 -1.106000 0.463659 10.042514 4.661444 64.601650 40.739835 33.804066 -28.520072 29.447574 -9.110206 1.967454 1.189502 -9.103853 -15.096637 -31.586396 9.351500 7.125000 0.000000 0.000000 17.951700 -62.420900 -7.733400 
10.884285 1.799467 -4.921789 166.782764 -7.817604 106.784246 -0.409301 -3.615958 -5.614631 -20.567873 -1.455851 -92.860546 2.733321 9.871573 30.328884 40.098448 4.860984 170.252815 2.367100 9.592100 27.665600 0.885743 2.221659 -1.099387 -3.922630 22.311445 -101.997440 -2.265214 -10.428426 29.931532 -40.849644 11.130586 174.005854 -7.847200 -16.005700 52.010500 -15.160962 2.273103 22.634934 -2.746816 5.223527 6.212386 -0.173315 3.980583 9.213512 -4.010261 -1.926822 -11.010134 3.106373 -1.396244 26.312962 1.037800 0.150800 6.504100 -0.652384 -8.795555 2.661760 -49.840153 -43.143598 58.771899 18.549802 -22.931794 -4.112615 0.871789 0.867252 -0.013007 29.365083 -12.128968 -7.087300 -7.125000 0.000000 0.000000 0.788200 14.997000 -0.557500 0.479912 9.991070 4.572677 64.806915 39.674946 34.500900 -28.001954 29.106896 -8.799268 1.950467 1.108939 -7.885010 -14.664160 -30.778428 8.878100 7.125000 0.000000 0.000000 17.814800 -61.527900 -7.296100 
10.863899 1.815796 -4.992845 167.077376 -6.826350 109.023056 -0.436094 -3.668292 -5.635552 -19.845418 -1.927777 -92.098385 2.692011 9.854796 30.157690 40.110460 4.914663 170.362676 2.734500 10.252400 29.798000 0.873284 2.224081 -1.128485 -3.413099 22.293231 -101.286184 -2.299065 -10.525892 30.193333 -40.924373 11.819058 174.421903 -8.136900 -16.219000 53.054300 -14.486427 2.165019 24.056939 -2.704008 4.906940 6.099723 -0.592668 3.979176 8.362057 -4.029556 -1.831657 -10.665961 3.484040 -1.467142 25.269979 1.127300 0.094700 6.183700 -0.656447 -8.815517 2.700753 -49.735093 -42.501835 58.216605 18.402451 -22.807029 -4.043864 0.884233 0.841983 -0.200690 28.465726 -12.572284 -7.024600 -7.125000 0.000000 0.000000 0.128300 14.667900 -0.091600 0.481772 9.992525 4.503611 64.955002 38.663151 35.212921 -27.550882 28.818519 -8.548443 1.942900 1.046813 -7.164569 -14.640271 -30.194569 8.699000 7.125000 0.000000 0.000000 17.396600 -60.936600 -6.874400 
10.843611 1.834104 -5.051729 167.569766 -5.355329 111.002208 -0.457226 -3.724438 -5.675207 -18.598041 -2.225995 -91.172235 2.689809 9.878200 30.136927 40.136474 4.961645 170.755048 3.020700 10.728500 31.369500 0.849648 2.202010 -1.145650 -2.140400 22.477496 -100.334805 -2.333853 -10.575320 30.327113 -40.872030 11.338836 174.265988 -9.161300 -16.910400 56.646400 -13.278129 2.076637 26.029518 -2.554746 4.617290 5.975282 -1.157110 4.023864 7.179241 -3.610061 -2.028382 -10.725833 3.043853 -1.697053 24.758860 0.919500 -0.064200 6.082500 -0.657835 -8.777230 2.716616 -49.737429 -42.076674 57.583196 18.137674 -22.533180 -3.952385 0.922247 0.817022 0.373331 27.991549 -13.278672 -7.214300 -7.125000 0.000000 0.000000 -0.274000 13.969200 0.199700 0.479307 10.062807 4.461056 65.035609 37.818755 35.602068 -27.016556 28.433200 -8.287891 1.957444 1.019281 -6.701119 -14.770615 -30.092715 8.743100 7.125000 0.000000 0.000000 17.161700 -60.858500 -6.746500 
10.839751 1.879232 -5.055786 171.315688 2.538374 113.826270 -0.440419 -3.917168 -5.949181 -9.916648 -2.131668 -91.682992 2.609116 9.404960 28.997758 40.184503 5.250670 170.922745 3.239100 11.072400 32.524300 0.628661 1.991752 -1.170904 6.665181 24.158276 -98.825850 -2.840875 -11.476406 33.109423 -40.880290 11.561504 174.345810 -9.005200 -16.811000 56.107900 -4.734107 1.188355 27.606841 -1.032981 4.224067 5.805567 -3.467122 4.205126 6.114012 -3.478615 -1.996888 -10.390739 3.308803 -1.877542 23.211438 0.969600 -0.212700 5.640700 -0.574473 -8.782933 2.705023 -49.388231 -42.074690 56.726352 17.846925 -22.200041 -3.859321 0.957120 0.800626 0.952038 27.828664 -13.931391 -7.471000 -7.125000 0.000000 0.000000 -0.459400 13.275400 0.341600 0.511660 10.091097 4.430035 64.845471 37.509862 35.712065 -26.444601 27.941289 -8.014839 1.989997 1.018501 -6.609561 -14.855269 -30.147326 8.817600 7.125000 0.000000 0.000000 17.070900 -60.930800 -6.739000 
